<svg version="1.1" id="Layer_1" xmlns="http://www.w3.org/2000/svg" xmlns:xlink="http://www.w3.org/1999/xlink" x="0px" y="0px"
	 width="100%" viewBox="0 0 632 486" enable-background="new 0 0 632 486" xml:space="preserve">
<path fill="#FFFFFF" opacity="1.000000" stroke="none" 
	d="
M438.000000,487.000000 
	C292.000031,487.000000 146.500076,487.000000 1.000078,487.000000 
	C1.000052,325.000061 1.000052,163.000153 1.000026,1.000165 
	C211.666550,1.000110 422.333099,1.000110 632.999756,1.000055 
	C632.999817,162.999832 632.999817,324.999664 632.999878,486.999756 
	C568.166687,487.000000 503.333344,487.000000 438.000000,487.000000 
M267.002228,434.207550 
	C267.707001,435.085266 268.382782,436.694519 269.121246,436.723816 
	C274.566772,436.939819 280.024841,436.840668 286.091064,436.840668 
	C286.091064,375.945099 286.091064,315.566193 286.091064,255.294373 
	C316.105316,255.294373 345.492065,255.294373 375.324219,255.294373 
	C375.324219,315.976868 375.324219,376.232635 375.324219,436.446228 
	C381.989410,436.446228 388.194580,436.446228 394.902069,436.446228 
	C394.902069,375.789459 394.902069,315.551178 394.902069,255.174911 
	C417.158630,255.174911 438.897461,255.174911 461.262024,255.174911 
	C461.262024,315.855042 461.262024,376.230072 461.262024,436.576172 
	C467.987183,436.576172 474.081055,436.576172 480.665649,436.576172 
	C480.665649,434.331879 480.665680,432.371216 480.665649,430.410522 
	C480.664642,350.079315 480.699615,269.748077 480.557556,189.417114 
	C480.550323,185.342575 481.787201,183.588135 485.577240,182.372787 
	C503.625061,176.585373 520.327698,167.937927 535.913696,157.249344 
	C542.520386,152.718582 548.499268,147.272263 554.763489,142.242050 
	C554.546631,141.802628 554.329834,141.363190 554.112976,140.923767 
	C477.298798,146.715851 406.885345,128.841888 343.342499,84.998428 
	C349.227112,74.178108 348.438202,65.286491 341.457489,59.761616 
	C334.747498,54.451008 325.925995,54.457088 319.886505,59.776470 
	C312.504791,66.278053 311.782715,74.815956 317.985107,84.773232 
	C254.516830,128.553177 184.107285,146.442169 106.466515,140.704071 
	C107.998962,142.388550 108.520935,143.025955 109.109077,143.594986 
	C110.186111,144.636978 111.274483,145.670547 112.406151,146.652283 
	C131.042603,162.819519 152.406601,174.168442 175.692810,181.929672 
	C179.922333,183.339340 181.118362,185.185226 181.109833,189.591263 
	C180.954315,269.922150 180.996307,350.253448 180.996307,430.584656 
	C180.996307,432.525299 180.996307,434.465942 180.996307,436.500854 
	C187.682007,436.500854 193.740707,436.500854 200.273880,436.500854 
	C200.273880,375.877350 200.273880,315.617340 200.273880,255.136719 
	C222.663406,255.136719 244.569275,255.136719 266.997040,255.136719 
	C266.997040,314.690033 266.997040,373.974487 267.002228,434.207550 
z"/>
<path fill="#3AB7FF" opacity="1.000000" stroke="none" 
	d="
M266.999634,433.733276 
	C266.997040,373.974487 266.997040,314.690033 266.997040,255.136719 
	C244.569275,255.136719 222.663406,255.136719 200.273880,255.136719 
	C200.273880,315.617340 200.273880,375.877350 200.273880,436.500854 
	C193.740707,436.500854 187.682007,436.500854 180.996307,436.500854 
	C180.996307,434.465942 180.996307,432.525299 180.996307,430.584656 
	C180.996307,350.253448 180.954315,269.922150 181.109833,189.591263 
	C181.118362,185.185226 179.922333,183.339340 175.692810,181.929672 
	C152.406601,174.168442 131.042603,162.819519 112.406151,146.652283 
	C111.274483,145.670547 110.186111,144.636978 109.109077,143.594986 
	C108.520935,143.025955 107.998962,142.388550 106.466515,140.704071 
	C184.107285,146.442169 254.516830,128.553177 317.985107,84.773232 
	C311.782715,74.815956 312.504791,66.278053 319.886505,59.776470 
	C325.925995,54.457088 334.747498,54.451008 341.457489,59.761616 
	C348.438202,65.286491 349.227112,74.178108 343.342499,84.998428 
	C406.885345,128.841888 477.298798,146.715851 554.112976,140.923767 
	C554.329834,141.363190 554.546631,141.802628 554.763489,142.242050 
	C548.499268,147.272263 542.520386,152.718582 535.913696,157.249344 
	C520.327698,167.937927 503.625061,176.585373 485.577240,182.372787 
	C481.787201,183.588135 480.550323,185.342575 480.557556,189.417114 
	C480.699615,269.748077 480.664642,350.079315 480.665649,430.410522 
	C480.665680,432.371216 480.665649,434.331879 480.665649,436.576172 
	C474.081055,436.576172 467.987183,436.576172 461.262024,436.576172 
	C461.262024,376.230072 461.262024,315.855042 461.262024,255.174911 
	C438.897461,255.174911 417.158630,255.174911 394.902069,255.174911 
	C394.902069,315.551178 394.902069,375.789459 394.902069,436.446228 
	C388.194580,436.446228 381.989410,436.446228 375.324219,436.446228 
	C375.324219,376.232635 375.324219,315.976868 375.324219,255.294373 
	C345.492065,255.294373 316.105316,255.294373 286.091064,255.294373 
	C286.091064,315.566193 286.091064,375.945099 286.091064,436.840668 
	C280.024841,436.840668 274.566772,436.939819 269.121246,436.723816 
	C268.382782,436.694519 267.707001,435.085266 266.999634,433.733276 
M286.003998,232.607620 
	C286.003998,237.357498 286.003998,242.107376 286.003998,246.701630 
	C316.124054,246.701630 345.397583,246.701630 374.770294,246.701630 
	C374.770294,240.018005 374.770294,233.633636 374.770294,227.089676 
	C345.141174,227.089676 315.875305,227.089676 286.291351,227.089676 
	C286.187622,228.731262 286.095825,230.184219 286.003998,232.607620 
M257.461304,246.997711 
	C260.552917,246.997711 263.644531,246.997711 266.588715,246.997711 
	C266.588715,239.860962 266.588715,233.467438 266.588715,227.265991 
	C244.284912,227.265991 222.392090,227.265991 200.404297,227.265991 
	C200.404297,233.926636 200.404297,240.183517 200.404297,246.997711 
	C219.265335,246.997711 237.869461,246.997711 257.461304,246.997711 
M429.500000,246.996490 
	C439.933167,246.996490 450.366333,246.996490 460.717834,246.996490 
	C460.717834,239.909332 460.717834,233.520966 460.717834,227.237854 
	C438.554199,227.237854 416.808563,227.237854 394.911896,227.237854 
	C394.911896,233.875214 394.911896,240.139145 394.911896,246.996490 
	C406.266968,246.996490 417.383484,246.996490 429.500000,246.996490 
z"/>
<path fill="#FFFFFF" opacity="1.000000" stroke="none" 
	d="
M286.004028,232.122406 
	C286.095825,230.184219 286.187622,228.731262 286.291351,227.089676 
	C315.875305,227.089676 345.141174,227.089676 374.770294,227.089676 
	C374.770294,233.633636 374.770294,240.018005 374.770294,246.701630 
	C345.397583,246.701630 316.124054,246.701630 286.003998,246.701630 
	C286.003998,242.107376 286.003998,237.357498 286.004028,232.122406 
z"/>
<path fill="#FEFFFF" opacity="1.000000" stroke="none" 
	d="
M256.967468,246.997711 
	C237.869461,246.997711 219.265335,246.997711 200.404297,246.997711 
	C200.404297,240.183517 200.404297,233.926636 200.404297,227.265991 
	C222.392090,227.265991 244.284912,227.265991 266.588715,227.265991 
	C266.588715,233.467438 266.588715,239.860962 266.588715,246.997711 
	C263.644531,246.997711 260.552917,246.997711 256.967468,246.997711 
z"/>
<path fill="#FFFFFF" opacity="1.000000" stroke="none" 
	d="
M429.000000,246.996490 
	C417.383484,246.996490 406.266968,246.996490 394.911896,246.996490 
	C394.911896,240.139145 394.911896,233.875214 394.911896,227.237854 
	C416.808563,227.237854 438.554199,227.237854 460.717834,227.237854 
	C460.717834,233.520966 460.717834,239.909332 460.717834,246.996490 
	C450.366333,246.996490 439.933167,246.996490 429.000000,246.996490 
z"/>
</svg>